<svg width="23" height="26" viewBox="0 0 23 26" fill="none" xmlns="http://www.w3.org/2000/svg">
<path d="M11.3306 0.650391C14.1198 0.650391 16.7807 1.62662 18.731 3.34375C20.6786 5.0586 21.7544 7.36516 21.7544 9.75C21.7544 11.3428 21.1207 13.1202 20.1069 14.9287C19.0982 16.7282 17.7442 18.5029 16.3765 20.0771C15.0107 21.6491 13.643 23.0071 12.6157 23.9727C12.1025 24.4551 11.6755 24.8393 11.3774 25.1016C11.3616 25.1155 11.3456 25.1284 11.3306 25.1416C11.3157 25.1285 11.3003 25.1153 11.2847 25.1016C10.9866 24.8393 10.5586 24.4551 10.0454 23.9727C9.01815 23.0071 7.65035 21.649 6.28467 20.0771C4.91695 18.503 3.56284 16.7281 2.5542 14.9287C1.54051 13.1203 0.907715 11.3427 0.907715 9.75C0.907715 7.36521 1.98263 5.05859 3.93018 3.34375C5.88041 1.6266 8.54135 0.65044 11.3306 0.650391ZM11.3306 4.22461C9.71465 4.22466 8.15052 4.78995 6.98584 5.81543C5.81869 6.84327 5.14404 8.25622 5.14404 9.75C5.14404 11.2438 5.81869 12.6567 6.98584 13.6846C8.15052 14.7101 9.71465 15.2753 11.3306 15.2754C12.9466 15.2754 14.5106 14.7101 15.6753 13.6846C16.8426 12.6567 17.5171 11.2439 17.5171 9.75C17.5171 8.25611 16.8426 6.84329 15.6753 5.81543C14.5106 4.7899 12.9466 4.22461 11.3306 4.22461Z" stroke="#5661CB" stroke-width="1.3"/>
</svg>
