<svg width="23" height="29" viewBox="0 0 23 29" fill="none" xmlns="http://www.w3.org/2000/svg">
<path d="M15.3242 28.4724C15.0812 28.4084 14.8456 28.3185 14.6217 28.2044C10.3425 26.0903 6.7472 22.8109 4.24962 18.7436C1.82496 14.6878 0.627593 10.0163 0.802386 5.29419C0.83081 4.70741 1.00976 4.13781 1.32203 3.64021C1.6343 3.14261 2.06937 2.73374 2.58539 2.45294L6.20406 0.422098C6.38825 0.320852 6.59171 0.259584 6.80117 0.242291C7.01064 0.224998 7.22139 0.252069 7.41969 0.321739C7.62413 0.398421 7.8093 0.518961 7.96217 0.674883C8.11503 0.830806 8.23188 1.01832 8.3045 1.22425L10.5283 7.51158C10.6098 7.75431 10.6114 8.01682 10.5326 8.26047C10.4538 8.50413 10.2989 8.71606 10.0907 8.86509L7.70985 10.5619C8.01595 12.3505 8.66307 14.0636 9.61598 15.6079C10.5492 17.1941 11.7779 18.5866 13.2356 19.71L15.9504 18.5096C16.1783 18.4095 16.4312 18.3812 16.6755 18.4283C16.9199 18.4754 17.1441 18.5957 17.3184 18.7733L21.8595 23.7258C22.0178 23.8865 22.1376 24.0809 22.21 24.2945C22.2825 24.5081 22.3056 24.7354 22.2778 24.9592C22.2499 25.183 22.1718 25.3976 22.0492 25.5869C21.9266 25.7763 21.7628 25.9354 21.57 26.0525L18.0218 28.1094C17.6183 28.3447 17.1722 28.498 16.7092 28.5603C16.2463 28.6226 15.7756 28.5927 15.3242 28.4724ZM6.93083 1.72369L3.31215 3.75453C3.02222 3.91113 2.77804 4.1405 2.60363 4.42008C2.42921 4.69966 2.33057 5.01982 2.31741 5.34908C2.14497 9.77791 3.25886 14.1619 5.52447 17.9713C7.87508 21.798 11.2587 24.8831 15.2857 26.8713C15.5903 27.0226 15.9277 27.0959 16.2676 27.0847C16.6075 27.0735 16.9394 26.9782 17.2334 26.8072L20.7816 24.7503L16.3965 19.9698L13.4794 21.2643C13.3678 21.3134 13.246 21.3345 13.1244 21.3257C13.0028 21.3169 12.8853 21.2785 12.7819 21.2139C10.9686 19.9522 9.45649 18.3054 8.35371 16.3913C7.17994 14.5385 6.43969 12.4447 6.18816 10.2659C6.18692 10.1376 6.2187 10.0112 6.28046 9.89877C6.34221 9.78635 6.43186 9.69172 6.54077 9.62397L9.10234 7.79658L6.93083 1.72369Z" fill="#5661CB"/>
</svg>
