<svg width="26" height="25" viewBox="0 0 26 25" fill="none" xmlns="http://www.w3.org/2000/svg">
<g clip-path="url(#clip0_8934_3060)">
<path d="M12.833 0C5.92939 0 0.333008 5.59639 0.333008 12.5C0.333008 19.4036 5.92939 25 12.833 25C19.7366 25 25.333 19.4036 25.333 12.5C25.333 5.59639 19.7366 0 12.833 0Z" fill="#40B3E0"/>
<path d="M18.9152 7.19081L16.6825 18.4475C16.6825 18.4475 16.3703 19.2282 15.5116 18.8535L10.3595 14.9035L8.48604 13.998L5.33233 12.9363C5.33233 12.9363 4.84834 12.7646 4.80147 12.3899C4.75459 12.0152 5.34795 11.8123 5.34795 11.8123L17.8847 6.89433C17.8847 6.89433 18.9151 6.44159 18.9151 7.19101" fill="white"/>
<path d="M9.96387 18.321C9.96387 18.321 9.81348 18.3069 9.62598 17.7136C9.43877 17.1203 8.48633 13.9979 8.48633 13.9979L16.0584 9.18926C16.0584 9.18926 16.4956 8.92383 16.48 9.18926C16.48 9.18926 16.558 9.23613 16.3237 9.45469C16.0897 9.67334 10.3755 14.8098 10.3755 14.8098" fill="#D2E5F1"/>
<path d="M12.3353 16.4172L10.2975 18.2752C10.2975 18.2752 10.1381 18.3961 9.96387 18.3203L10.3541 14.8691" fill="#B5CFE4"/>
</g>
<defs>
<clipPath id="clip0_8934_3060">
<rect width="25" height="25" fill="white" transform="translate(0.333008)"/>
</clipPath>
</defs>
</svg>
