<svg width="27" height="26" viewBox="0 0 27 26" fill="none" xmlns="http://www.w3.org/2000/svg">
<g clip-path="url(#clip0_8934_3065)">
<path d="M14.1455 24.375C12.0465 24.375 10.0745 23.8672 8.22949 22.8516L0.333008 26L3.48145 18.1035C2.46582 16.2585 1.95801 14.2865 1.95801 12.1875C1.95801 10.5286 2.27962 8.9502 2.92285 7.45215C3.56608 5.9541 4.43359 4.65918 5.52539 3.56738C6.61719 2.47559 7.91211 1.60807 9.41016 0.964844C10.9082 0.321615 12.4867 0 14.1455 0C15.8044 0 17.3828 0.321615 18.8809 0.964844C20.3789 1.60807 21.6738 2.47559 22.7656 3.56738C23.8574 4.65918 24.7249 5.9541 25.3682 7.45215C26.0114 8.9502 26.333 10.5286 26.333 12.1875C26.333 13.8464 26.0114 15.4248 25.3682 16.9229C24.7249 18.4209 23.8574 19.7158 22.7656 20.8076C21.6738 21.8994 20.3789 22.7669 18.8809 23.4102C17.3828 24.0534 15.8044 24.375 14.1455 24.375ZM18.208 14.625H16.583L15.6689 15.4375C14.9072 15.2344 13.972 14.5785 12.8633 13.4697C11.7546 12.361 11.0986 11.4258 10.8955 10.6641L11.708 9.75V8.125C11.708 7.83724 11.6064 7.54948 11.4033 7.26172C11.2002 6.97396 10.9759 6.7666 10.7305 6.63965C10.485 6.5127 10.3115 6.5 10.21 6.60156L9.0166 7.79492C8.35645 8.45508 8.25911 9.4834 8.72461 10.8799C9.1901 12.2764 10.0788 13.6305 11.3906 14.9424C12.7025 16.2542 14.0566 17.1429 15.4531 17.6084C16.8496 18.0739 17.8779 17.9766 18.5381 17.3164L19.7314 16.123C19.833 16.0215 19.8203 15.848 19.6934 15.6025C19.5664 15.3571 19.359 15.1328 19.0713 14.9297C18.7835 14.7266 18.4958 14.625 18.208 14.625Z" fill="#46C756"/>
</g>
<defs>
<clipPath id="clip0_8934_3065">
<rect width="26" height="26" fill="white" transform="translate(0.333008)"/>
</clipPath>
</defs>
</svg>
