<svg width="25" height="25" viewBox="0 0 25 25" fill="none" xmlns="http://www.w3.org/2000/svg">
<path d="M12.5 25C5.58824 25 0 19.4118 0 12.5C0 5.58824 5.58824 0 12.5 0C19.4118 0 25 5.58824 25 12.5C25 19.4118 19.4118 25 12.5 25ZM12.5 1.47059C6.39706 1.47059 1.47059 6.39706 1.47059 12.5C1.47059 18.6029 6.39706 23.5294 12.5 23.5294C18.6029 23.5294 23.5294 18.6029 23.5294 12.5C23.5294 6.39706 18.6029 1.47059 12.5 1.47059Z" fill="#5661CB"/>
<path d="M14.1171 18L8 12L14.1171 6L15 6.86598L9.76577 12L15 17.134L14.1171 18Z" fill="#5661CB"/>
</svg>
